<?xml version="1.0"?><svg version="1.2" baseProfile="tiny-ps" viewBox="0 0 300 300" xmlns="http://www.w3.org/2000/svg" xmlns:xlink="http://www.w3.org/1999/xlink"><title>Logo</title><g><g fill="#fff" transform="matrix(.1 0 0 -.1 0 300)"><path d="M0 1500V0h3000v3000H0V1500z"/></g><g fill="#def" transform="matrix(.1 0 0 -.1 0 300)"><path d="M0 1500V0h3000v3000H0V1500zm2054 844 38-26 14-34c18-42 18-86 0-128l-14-33-33-25c-19-14-52-30-74-36s-88-24-147-41c-60-17-154-44-210-60-57-16-269-77-473-136l-370-106-44 4-43 5-27 19-26 19-24 47-23 48 12 45 13 45 28 29 29 28 67 21c90 27 919 265 1052 301 57 16 106 32 109 35s28 5 56 5h51l39-26zm146-523c14-10 35-33 48-51l22-33v-78l-16-32c-31-59-55-72-221-118-162-45-280-79-711-203l-403-115-32 6c-61 11-101 46-124 112l-13 34 10 38c13 47 50 93 87 108 23 9 487 143 943 273 58 16 150 42 205 58l100 29 40-5 40-5 25-18zm151-524 34-22 17-35 18-35v-70l-18-34c-9-19-28-43-42-53l-25-18-105-31c-58-17-151-44-207-60-57-16-149-42-205-58-57-16-247-70-423-121l-320-92-44 7-45 7-32 32-32 32-10 37-10 37 10 37c14 50 36 81 69 98 21 11 561 171 714 212 11 3 58 17 105 30 47 14 132 38 190 55 58 16 132 38 165 48l60 18 51 1 51 1 34-23z"/></g><g fill="#b1d7ff" transform="matrix(.1 0 0 -.1 0 300)"><path d="M0 1500V0h3000v3000H0V1500zm2048 850c18-11 41-34 53-52l20-33-3-55-4-56-19-26c-11-15-31-33-45-41s-300-94-637-191l-612-176h-96l-37 25-36 24-17 45-17 45 6 34c8 43 43 94 76 113 14 8 297 93 630 189l605 174h50l50 1 33-20zm142-519 35-18 23-33 22-33v-102l-20-32c-10-18-30-39-43-48l-24-15-629-181-629-180-39 6-39 6-30 21-29 21-19 41c-24 53-24 80 1 132l21 42 26 18 27 17 615 178 616 177 40 1 40 1 35-19zm159-527c14-9 35-28 46-42l20-27v-135l-36-36-36-36-624-179-624-179h-76l-28 15c-16 8-40 28-54 44l-25 30-7 41-7 41 24 46 23 47 25 18 25 18 625 180 625 180 39-6c22-2 51-12 65-20z"/></g><g fill="#78bbff" transform="matrix(.1 0 0 -.1 0 300)"><path d="M0 1500V0h3000v3000H0V1500zm2036 859 43-20 20-32c11-18 22-48 26-68l7-37-20-44-19-45-30-21-29-20-632-182-633-182-33 6c-19 4-48 17-66 29l-33 22-19 35-19 35 4 48 4 48 20 27c10 14 30 34 44 44l24 18 620 179c341 99 633 180 649 180l30 1 42-21zm165-532 34-22 23-47 24-47-7-41-7-41-25-30c-14-16-37-36-52-43-14-8-302-93-638-190l-612-176h-78l-33 23c-18 12-43 35-54 50l-21 28v116l27 35 27 35 33 14c18 7 300 91 628 185l595 172 51 1 51 1 34-23zm163-530 34-27 17-44 17-45-6-33c-3-18-15-47-26-65l-19-32-32-16c-17-9-313-98-657-196l-626-180-30 7c-17 3-46 15-64 26l-33 20-20 41-21 41 5 44 5 44 19 26c11 14 31 35 45 45l27 20 618 178 618 179 47-4 47-3 35-26z"/></g><g fill="#41a0ff" transform="matrix(.1 0 0 -.1 0 300)"><path d="M0 1500V0h3000v3000H0V1500zm2034 866 33-14 29-38 29-37v-116l-21-28c-11-15-35-37-51-49l-31-21-233-66c-129-37-406-116-617-177l-383-110h-76l-34 23c-18 12-44 38-56 56l-23 34v104l29 40 30 41 43 16c24 8 171 52 328 97 157 44 422 121 590 169l305 88 38 1 38 1 33-14zm152-525 41-19 24-33 24-34v-120l-23-33c-13-18-37-39-54-48s-224-71-462-139c-237-68-518-148-624-179l-193-55-32 6c-18 3-44 12-59 20l-27 13-26 37-25 38v102l22 33c13 18 34 41 48 51l25 18 300 87c165 47 444 128 620 179s334 93 350 94l30 1 41-19zm165-534c18-12 44-38 56-56l23-34v-94l-22-33c-13-18-34-41-48-52l-25-18-240-69c-132-38-415-120-629-181l-389-112-40 5-40 6-26 19c-14 10-36 34-49 52l-22 33v102l25 38 26 37 27 14c31 16 137 47 777 230l470 135 46 1h46l34-23z"/></g></g></svg>
